<svg width="1519" height="722" viewBox="0 0 1519 722" fill="none" xmlns="http://www.w3.org/2000/svg">
<line x1="0.5" y1="1.79999" x2="0.5" y2="721.8" stroke="#0F0F0F" stroke-opacity="0.3"/>
<line x1="120.5" y1="1.79999" x2="120.5" y2="721.8" stroke="#0F0F0F" stroke-opacity="0.3"/>
<line x1="240.5" y1="1.79999" x2="240.5" y2="721.8" stroke="#0F0F0F" stroke-opacity="0.3"/>
<line x1="360.5" y1="1.79999" x2="360.5" y2="721.8" stroke="#0F0F0F" stroke-opacity="0.3"/>
<line x1="480.5" y1="1.79999" x2="480.5" y2="721.8" stroke="#0F0F0F" stroke-opacity="0.3"/>
<line x1="600.5" y1="1.79999" x2="600.5" y2="721.8" stroke="#0F0F0F" stroke-opacity="0.3"/>
<line x1="720.5" y1="1.79999" x2="720.5" y2="721.8" stroke="#0F0F0F" stroke-opacity="0.3"/>
<line x1="840.5" y1="1.79999" x2="840.5" y2="721.8" stroke="#0F0F0F" stroke-opacity="0.3"/>
<line x1="960.5" y1="1.79999" x2="960.5" y2="721.8" stroke="#0F0F0F" stroke-opacity="0.3"/>
<line x1="1080.5" y1="1.79999" x2="1080.5" y2="721.8" stroke="#0F0F0F" stroke-opacity="0.3"/>
<line x1="1200.5" y1="1.79999" x2="1200.5" y2="721.8" stroke="#0F0F0F" stroke-opacity="0.3"/>
<line x1="1320.5" y1="1.79999" x2="1320.5" y2="721.8" stroke="#0F0F0F" stroke-opacity="0.3"/>
<line x1="1440.5" y1="1.79999" x2="1440.5" y2="721.8" stroke="#0F0F0F" stroke-opacity="0.3"/>
<line x1="4.37114e-08" y1="1.29999" x2="1519" y2="1.30012" stroke="#0F0F0F" stroke-opacity="0.3"/>
<line x1="4.72083e-08" y1="121.3" x2="1519" y2="121.3" stroke="#0F0F0F" stroke-opacity="0.3"/>
<line x1="4.72083e-08" y1="241.3" x2="1519" y2="241.3" stroke="#0F0F0F" stroke-opacity="0.3"/>
<line x1="4.72083e-08" y1="361.3" x2="1519" y2="361.3" stroke="#0F0F0F" stroke-opacity="0.3"/>
<line x1="4.72083e-08" y1="481.3" x2="1519" y2="481.301" stroke="#0F0F0F" stroke-opacity="0.3"/>
<line x1="4.72083e-08" y1="601.301" x2="1519" y2="601.301" stroke="#0F0F0F" stroke-opacity="0.3"/>
<line x1="4.72083e-08" y1="721.301" x2="1519" y2="721.301" stroke="#0F0F0F" stroke-opacity="0.3"/>
<rect x="241" y="361.8" width="119" height="119" fill="black" fill-opacity="0.05"/>
<rect x="121" y="361.8" width="119" height="119" fill="black" fill-opacity="0.05"/>
<rect x="361" y="601.8" width="119" height="119" fill="black" fill-opacity="0.05"/>
<rect x="121" y="1.79999" width="119" height="119" fill="black" fill-opacity="0.05"/>
<rect x="481" y="121.8" width="119" height="119" fill="black" fill-opacity="0.05"/>
<rect x="1201" y="121.8" width="119" height="119" fill="black" fill-opacity="0.05"/>
<rect x="1321" y="241.8" width="119" height="119" fill="black" fill-opacity="0.05"/>
<rect x="1081" y="481.8" width="119" height="119" fill="black" fill-opacity="0.05"/>
</svg>
