<?xml version="1.0" encoding="UTF-8" standalone="no"?>
<!DOCTYPE svg PUBLIC "-//W3C//DTD SVG 1.1//EN" "http://www.w3.org/Graphics/SVG/1.1/DTD/svg11.dtd">
<svg width="100%" height="100%" viewBox="0 0 5556 5556" version="1.1" xmlns="http://www.w3.org/2000/svg" xmlns:xlink="http://www.w3.org/1999/xlink" xml:space="preserve" xmlns:serif="http://www.serif.com/" style="fill-rule:evenodd;clip-rule:evenodd;stroke-linejoin:round;stroke-miterlimit:2;">
    <g transform="matrix(2.77778,0,0,2.77778,0,0)">
        <g>
            <path d="M2000,349.725L2000,1650.28C2000,1843.29 1843.29,2000 1650.28,2000L349.725,2000C156.707,2000 0,1843.29 0,1650.28L0,349.725C0,156.707 156.707,0 349.725,0L1650.28,0C1843.29,0 2000,156.707 2000,349.725ZM1000,297.816C997.029,297.775 994.054,297.755 991.075,297.755C619.897,297.755 318.55,602.563 318.55,978.002C318.55,1124.11 364.19,1259.52 441.826,1370.43C444.36,1374.01 448.852,1375.55 452.997,1374.26C457.14,1372.97 460.017,1369.13 460.149,1364.72C460.937,1338.73 461.944,1305.01 461.944,1305.01C462.675,1280.49 472.362,1257.13 489.108,1239.49L755.643,947.381C758.854,943.862 764.166,943.406 767.91,946.327C771.654,949.249 772.602,954.59 770.102,958.661C770.049,958.747 583.355,1262.78 583.355,1262.78C557.649,1305.84 549.742,1357.32 563.184,1405.82C573.877,1444.41 580.183,1465.79 586.832,1489.23C594.719,1517.05 612.486,1540.89 636.674,1556.11C739.607,1620.84 861.056,1658.25 991.075,1658.25C994.054,1658.25 997.029,1658.23 1000,1658.18C1002.97,1658.23 1005.95,1658.25 1008.93,1658.25C1380.1,1658.25 1681.45,1353.44 1681.45,977.998C1681.45,831.892 1635.81,696.48 1558.17,585.567C1555.64,581.987 1551.15,580.449 1547,581.741C1542.86,583.034 1539.98,586.871 1539.85,591.283C1539.06,617.268 1538.06,650.994 1538.06,650.994C1537.33,675.513 1527.64,698.873 1510.89,716.506L1244.36,1008.62C1241.15,1012.14 1235.83,1012.59 1232.09,1009.67C1228.35,1006.75 1227.4,1001.41 1229.9,997.339L1416.64,693.224C1442.35,650.159 1450.26,598.678 1436.82,550.176L1413.17,466.769C1405.28,438.947 1387.51,415.108 1363.33,399.889C1260.39,335.156 1138.94,297.755 1008.93,297.755C1005.95,297.755 1002.97,297.775 1000,297.816ZM1197.5,955.209L1188.16,1000.79C1185.59,1013.37 1173.47,1023.58 1161.12,1023.58L820.208,1023.58C807.857,1023.58 799.923,1013.37 802.499,1000.79L811.837,955.209C814.413,942.633 826.532,932.419 838.883,932.419L1179.79,932.419C1192.14,932.419 1200.08,942.633 1197.5,955.209Z"/>
        </g>
    </g>
</svg>
