<svg width="44" height="44" viewBox="0 0 44 44" fill="none" xmlns="http://www.w3.org/2000/svg">
<path fill-rule="evenodd" clip-rule="evenodd" d="M22.1762 38.7306C22.1113 38.7314 22.0463 38.7318 21.9812 38.7318C12.609 38.7318 5 31.1744 5 21.866C5 12.5574 12.609 5.00012 21.9812 5.00012C22.0463 5.00012 22.1113 5.00051 22.1762 5.00124V7.2714C22.1113 7.27054 22.0463 7.27011 21.9812 7.27011C13.8704 7.27011 7.2855 13.8103 7.2855 21.866C7.2855 25.001 8.2828 27.9064 9.97925 30.2863C10.0346 30.3631 10.1328 30.3961 10.2234 30.3684C10.3139 30.3406 10.3768 30.2583 10.3796 30.1636C10.3969 29.6061 10.4189 28.8824 10.4189 28.8824C10.4348 28.3563 10.6465 27.8551 11.0124 27.4768L16.8367 21.2089C16.9068 21.1334 17.0229 21.1236 17.1047 21.1863C17.1865 21.249 17.2072 21.3636 17.1526 21.451C17.1514 21.4528 13.0719 27.9763 13.0719 27.9763C12.5102 28.9004 12.3374 30.005 12.6311 31.0457C12.8648 31.8735 13.0026 32.3322 13.1479 32.8353C13.3202 33.4323 13.7085 33.9438 14.237 34.2703C16.4862 35.6593 19.1401 36.4618 21.9812 36.4618C22.0463 36.4618 22.1113 36.4613 22.1762 36.4605V38.7306Z" fill="#171717"/>
<path fill-rule="evenodd" clip-rule="evenodd" d="M22.1762 5.00112C22.2411 5.00039 22.3062 5 22.3713 5C31.7434 5 39.3524 12.5573 39.3524 21.8658C39.3524 31.1743 31.7434 38.7316 22.3713 38.7316C22.3062 38.7316 22.2411 38.7312 22.1762 38.7305V36.4603C22.2411 36.4612 22.3062 36.4616 22.3713 36.4616C30.482 36.4616 37.0669 29.9215 37.0669 21.8658C37.0669 18.7308 36.0696 15.8253 34.3732 13.4455C34.3178 13.3687 34.2196 13.3357 34.1291 13.3634C34.0385 13.3911 33.9757 13.4735 33.9728 13.5681C33.9556 14.1257 33.9336 14.8493 33.9336 14.8493C33.9176 15.3754 33.7059 15.8767 33.34 16.255L27.5158 22.5228C27.4456 22.5983 27.3295 22.6081 27.2477 22.5454C27.1659 22.4827 27.1452 22.3681 27.1998 22.2808L31.2805 15.7554C31.8422 14.8314 32.015 13.7268 31.7213 12.6861L31.2045 10.8965C31.0322 10.2995 30.644 9.78799 30.1154 9.46143C27.8662 8.07247 25.2123 7.26999 22.3713 7.26999C22.3062 7.26999 22.2411 7.27042 22.1762 7.27123V5.00112Z" fill="#171717"/>
<path fill-rule="evenodd" clip-rule="evenodd" d="M26.4919 21.3768C26.5482 21.1069 26.3748 20.8878 26.1049 20.8878H18.6555C18.3857 20.8878 18.1208 21.1069 18.0645 21.3768L17.8605 22.3547C17.8042 22.6246 17.9776 22.8437 18.2475 22.8437H25.6968C25.9667 22.8437 26.2315 22.6246 26.2878 22.3547L26.4919 21.3768Z" fill="#171717"/>
</svg>
