<?xml version="1.0" encoding="UTF-8" standalone="no"?>
<!DOCTYPE svg PUBLIC "-//W3C//DTD SVG 1.1//EN" "http://www.w3.org/Graphics/SVG/1.1/DTD/svg11.dtd">
<svg width="100%" height="100%" viewBox="0 0 5689 5689" version="1.1" xmlns="http://www.w3.org/2000/svg" xmlns:xlink="http://www.w3.org/1999/xlink" xml:space="preserve" xmlns:serif="http://www.serif.com/" style="fill-rule:evenodd;clip-rule:evenodd;stroke-linejoin:round;stroke-miterlimit:2;">
    <g transform="matrix(5.55556,0,0,5.55556,0,0)">
        <g transform="matrix(1.02737,0,0,1.04627,-14.0114,-23.6916)">
            <path d="M512,904.487C510.489,904.505 508.976,904.514 507.461,904.514C289.345,904.514 112.263,728.634 112.263,512.001C112.263,295.366 289.345,119.487 507.461,119.487C508.976,119.487 510.489,119.496 512,119.513C513.511,119.495 515.024,119.486 516.539,119.486C734.655,119.486 911.737,295.366 911.737,511.999C911.737,728.634 734.655,904.513 516.539,904.513C515.024,904.513 513.511,904.504 512,904.487ZM512,172.345C510.489,172.325 508.976,172.315 507.461,172.315C318.701,172.315 165.453,324.523 165.453,512.001C165.453,584.96 188.663,652.579 228.144,707.964C229.433,709.752 231.717,710.52 233.825,709.875C235.932,709.229 237.395,707.313 237.462,705.11C237.863,692.134 238.375,675.293 238.375,675.293C238.747,663.049 243.673,651.384 252.189,642.579L387.734,496.71C389.367,494.953 392.068,494.725 393.972,496.184C395.876,497.643 396.358,500.31 395.087,502.343C395.06,502.386 300.118,654.205 300.118,654.205C287.045,675.71 283.024,701.417 289.86,725.637C295.298,744.904 298.505,755.579 301.886,767.287C305.897,781.18 314.932,793.084 327.233,800.684C379.579,833.009 441.341,851.685 507.461,851.685C508.976,851.685 510.489,851.675 512,851.655C513.511,851.675 515.024,851.685 516.539,851.685C705.299,851.685 858.547,699.477 858.547,511.999C858.547,439.04 835.337,371.421 795.856,316.036C794.567,314.248 792.283,313.48 790.175,314.125C788.068,314.771 786.605,316.687 786.538,318.89C786.137,331.866 785.625,348.707 785.625,348.707C785.253,360.951 780.327,372.616 771.811,381.421L636.266,527.29C634.633,529.047 631.932,529.275 630.028,527.816C628.124,526.357 627.642,523.69 628.913,521.657L723.882,369.795C736.955,348.29 740.976,322.583 734.14,298.363L722.114,256.713C718.103,242.82 709.068,230.916 696.767,223.316C644.421,190.991 582.659,172.315 516.539,172.315C515.024,172.315 513.511,172.325 512,172.345ZM612.437,500.619L607.689,523.379C606.378,529.66 600.216,534.758 593.935,534.758L420.568,534.758C414.287,534.758 410.252,529.66 411.562,523.379L416.311,500.619C417.621,494.339 423.784,489.239 430.065,489.239L603.431,489.239C609.712,489.239 613.747,494.339 612.437,500.619Z" style="fill:rgb(13,5,0);"/>
        </g>
    </g>
</svg>
